<svg xmlns="http://www.w3.org/2000/svg" viewBox="0 0 204 204"><defs><style>.cls-1{fill:#fff;}.cls-2{fill:none;stroke:#fff;stroke-miterlimit:10;stroke-width:4px;}</style></defs><title>membre2</title><g id="Layer_2" data-name="Layer 2"><g id="Layer_1-2" data-name="Layer 1"><path class="cls-1" d="M102,4A98,98,0,1,1,4,102,98.11,98.11,0,0,1,102,4m0-4A102,102,0,1,0,204,102,102,102,0,0,0,102,0Z"/><path class="cls-2" d="M139,72.55c15.29,8.37,40.26,33.08,38.47,45.18-.87,5.88-8.31,9.21-10.56,10.22a23.69,23.69,0,0,1-8.57,2.46C155.63,162.72,131.79,188,102.77,188s-52.88-25.29-55.54-57.62C43.06,130.72,39.28,129,37,128s-9.7-4.34-10.57-10.22C24.34,103.82,57.65,73.24,71,70a37.72,37.72,0,1,1,63.33.43A31.85,31.85,0,0,1,139,72.55Z"/></g></g></svg>