<svg xmlns="http://www.w3.org/2000/svg" viewBox="0 0 204 204"><defs><style>.cls-1{fill:#fff;}</style></defs><title>membre</title><g id="Layer_2" data-name="Layer 2"><g id="Layer_1-2" data-name="Layer 1"><path class="cls-1" d="M102,4A98,98,0,1,1,4,102,98.11,98.11,0,0,1,102,4m0-4A102,102,0,1,0,204,102,102,102,0,0,0,102,0Z"/><path class="cls-1" d="M102.77,64.71c28.55,0,51.78,26.76,51.78,59.65S131.32,184,102.77,184,51,157.24,51,124.36s23.23-59.65,51.79-59.65m0-4C72,60.71,47,89.21,47,124.36S72,188,102.77,188s55.78-28.49,55.78-63.64-25-63.65-55.78-63.65Z"/><path class="cls-1" d="M131.68,73.81c5.45,1.11,20,11.06,31.64,24.52,8.14,9.43,10.58,15.91,10.15,18.82-.25,1.69-1.88,4.3-8.24,7.15l-.12,0a18.68,18.68,0,0,1-7.46,2.08,8.34,8.34,0,0,1-4.27-1.13c-2.77-1.59-5.19-5-10.72-19.53s-10.46-27.39-11-32m-.9-4.11a3.25,3.25,0,0,0-2.46.88c-2.41,2.54,1.93,13.9,10.6,36.62,5.74,15,8.53,19.31,12.47,21.57a12.31,12.31,0,0,0,6.26,1.66c3.74,0,7.09-1.53,9.22-2.48s9.69-4.34,10.56-10.22c2.17-14.71-35.16-48-46.65-48Z"/><path class="cls-1" d="M72.14,73.81c-.52,4.58-5.41,17.38-11,32s-7.94,17.94-10.72,19.53a8.34,8.34,0,0,1-4.27,1.13,18.63,18.63,0,0,1-7.45-2.08l-.13,0c-6.36-2.85-8-5.46-8.24-7.15-.43-2.91,2-9.39,10.16-18.82C52.12,84.88,66.69,74.92,72.14,73.81m.91-4.11c-11.49,0-48.83,33.32-46.66,48,.87,5.88,8.31,9.21,10.57,10.22s5.47,2.48,9.21,2.48a12.34,12.34,0,0,0,6.27-1.66c3.93-2.26,6.72-6.55,12.46-21.57,8.68-22.72,13-34.08,10.6-36.62a3.23,3.23,0,0,0-2.45-.88Z"/><path class="cls-1" d="M102.77,16A33.72,33.72,0,1,1,69.05,49.71,33.75,33.75,0,0,1,102.77,16m0-4a37.72,37.72,0,1,0,37.71,37.71A37.72,37.72,0,0,0,102.77,12Z"/></g></g></svg>