<svg xmlns="http://www.w3.org/2000/svg" viewBox="0 0 204 204"><defs><style>.cls-1{fill:#fff;}.cls-2{fill:none;stroke:#fff;stroke-miterlimit:10;stroke-width:4px;}</style></defs><title>oiseau</title><g id="Layer_2" data-name="Layer 2"><g id="Layer_1-2" data-name="Layer 1"><path class="cls-1" d="M102,4A98,98,0,1,1,4,102,98.11,98.11,0,0,1,102,4m0-4A102,102,0,1,0,204,102,102,102,0,0,0,102,0Z"/><path class="cls-1" d="M60.63,57.25A10.07,10.07,0,1,1,50.56,67.31,10.07,10.07,0,0,1,60.63,57.25m0-4A14.07,14.07,0,1,0,74.69,67.31,14.07,14.07,0,0,0,60.63,53.25Z"/><path class="cls-1" d="M144.25,57.25a10.07,10.07,0,1,1-10.06,10.06,10.07,10.07,0,0,1,10.06-10.06m0-4a14.07,14.07,0,1,0,14.06,14.06,14.06,14.06,0,0,0-14.06-14.06Z"/><path class="cls-2" d="M132.47,111.78,102,159,71.53,111.78"/></g></g></svg>