<svg xmlns="http://www.w3.org/2000/svg" viewBox="0 0 204 204"><defs><style>.cls-1{fill:#fff;}.cls-2{fill:none;stroke:#fff;stroke-miterlimit:10;stroke-width:4px;}</style></defs><title>pouinteur</title><g id="Layer_2" data-name="Layer 2"><g id="Layer_1-2" data-name="Layer 1"><path class="cls-1" d="M102,4A98,98,0,1,1,4,102,98.11,98.11,0,0,1,102,4m0-4A102,102,0,1,0,204,102,102,102,0,0,0,102,0Z"/><path class="cls-2" d="M136.94,86.35a26.54,26.54,0,0,1,0,3.61c-1.23,19.07-34.32,62.61-34.32,62.61s-33-46.33-35.27-62a25.08,25.08,0,0,1-.25-4.21C67.48,72.3,80,51.43,102,51.43,123.84,51.43,136,72.52,136.94,86.35Z"/><circle class="cls-2" cx="102.02" cy="83.34" r="18.66"/></g></g></svg>