<svg xmlns="http://www.w3.org/2000/svg" viewBox="0 0 967 204"><defs><style>.cls-1{fill:#fff;}.cls-2,.cls-3{fill:none;stroke:#fff;stroke-miterlimit:10;}.cls-2{stroke-width:4px;}.cls-3{stroke-width:2px;}</style></defs><title>TroisBouton</title><g id="Layer_2" data-name="Layer 2"><g id="Layer_1-2" data-name="Layer 1"><path class="cls-1" d="M102,4A98,98,0,1,1,4,102,98.11,98.11,0,0,1,102,4m0-4A102,102,0,1,0,204,102,102,102,0,0,0,102,0Z"/><path class="cls-2" d="M136.94,86.35a26.54,26.54,0,0,1,0,3.61c-1.23,19.07-34.32,62.61-34.32,62.61s-33-46.33-35.27-62a25.08,25.08,0,0,1-.25-4.21C67.48,72.3,80,51.43,102,51.43,123.84,51.43,136,72.52,136.94,86.35Z"/><circle class="cls-2" cx="102.02" cy="83.34" r="18.66"/><path class="cls-1" d="M485,4a98,98,0,1,1-98,98A98.11,98.11,0,0,1,485,4m0-4A102,102,0,1,0,587,102,102,102,0,0,0,485,0Z"/><path class="cls-1" d="M443.63,57.25a10.07,10.07,0,1,1-10.07,10.06,10.07,10.07,0,0,1,10.07-10.06m0-4a14.07,14.07,0,1,0,14.06,14.06,14.07,14.07,0,0,0-14.06-14.06Z"/><path class="cls-1" d="M527.25,57.25a10.07,10.07,0,1,1-10.06,10.06,10.07,10.07,0,0,1,10.06-10.06m0-4a14.07,14.07,0,1,0,14.06,14.06,14.06,14.06,0,0,0-14.06-14.06Z"/><path class="cls-2" d="M515.47,111.78,485,159l-30.47-47.23"/><path class="cls-1" d="M865,4a98,98,0,1,1-98,98A98.11,98.11,0,0,1,865,4m0-4A102,102,0,1,0,967,102,102,102,0,0,0,865,0Z"/><path class="cls-2" d="M902,72.55c15.29,8.37,40.26,33.08,38.47,45.18-.87,5.88-8.31,9.21-10.56,10.22a23.69,23.69,0,0,1-8.57,2.46C918.63,162.72,894.79,188,865.77,188s-52.88-25.29-55.54-57.62c-4.17.34-8-1.39-10.27-2.43s-9.7-4.34-10.57-10.22c-2-13.91,31.26-44.49,44.57-47.74a37.72,37.72,0,1,1,63.33.43A31.85,31.85,0,0,1,902,72.55Z"/><line class="cls-3" x1="204" y1="102" x2="383" y2="102"/><line class="cls-3" x1="587" y1="102" x2="766" y2="102"/></g></g></svg>